# M-STUDIO Mannequin - procedurally generated
# 741 vertices, 696 faces
o Mannequin
v 0.155000 0.000000 0.550000
v 0.149719 0.027176 0.550000
v 0.134234 0.052500 0.550000
v 0.109602 0.074246 0.550000
v 0.077500 0.090933 0.550000
v 0.040117 0.101422 0.550000
v 0.000000 0.105000 0.550000
v -0.040117 0.101422 0.550000
v -0.077500 0.090933 0.550000
v -0.109602 0.074246 0.550000
v -0.134234 0.052500 0.550000
v -0.149719 0.027176 0.550000
v -0.155000 0.000000 0.550000
v -0.149719 -0.027176 0.550000
v -0.134234 -0.052500 0.550000
v -0.109602 -0.074246 0.550000
v -0.077500 -0.090933 0.550000
v -0.040117 -0.101422 0.550000
v -0.000000 -0.105000 0.550000
v 0.040117 -0.101422 0.550000
v 0.077500 -0.090933 0.550000
v 0.109602 -0.074246 0.550000
v 0.134234 -0.052500 0.550000
v 0.149719 -0.027176 0.550000
v 0.150000 0.000000 0.590000
v 0.144889 0.028470 0.590000
v 0.129904 0.055000 0.590000
v 0.106066 0.077782 0.590000
v 0.075000 0.095263 0.590000
v 0.038823 0.106252 0.590000
v 0.000000 0.110000 0.590000
v -0.038823 0.106252 0.590000
v -0.075000 0.095263 0.590000
v -0.106066 0.077782 0.590000
v -0.129904 0.055000 0.590000
v -0.144889 0.028470 0.590000
v -0.150000 0.000000 0.590000
v -0.144889 -0.028470 0.590000
v -0.129904 -0.055000 0.590000
v -0.106066 -0.077782 0.590000
v -0.075000 -0.095263 0.590000
v -0.038823 -0.106252 0.590000
v -0.000000 -0.110000 0.590000
v 0.038823 -0.106252 0.590000
v 0.075000 -0.095263 0.590000
v 0.106066 -0.077782 0.590000
v 0.129904 -0.055000 0.590000
v 0.144889 -0.028470 0.590000
v 0.140000 0.000000 0.650000
v 0.135230 0.027176 0.650000
v 0.121244 0.052500 0.650000
v 0.098995 0.074246 0.650000
v 0.070000 0.090933 0.650000
v 0.036235 0.101422 0.650000
v 0.000000 0.105000 0.650000
v -0.036235 0.101422 0.650000
v -0.070000 0.090933 0.650000
v -0.098995 0.074246 0.650000
v -0.121244 0.052500 0.650000
v -0.135230 0.027176 0.650000
v -0.140000 0.000000 0.650000
v -0.135230 -0.027176 0.650000
v -0.121244 -0.052500 0.650000
v -0.098995 -0.074246 0.650000
v -0.070000 -0.090933 0.650000
v -0.036235 -0.101422 0.650000
v -0.000000 -0.105000 0.650000
v 0.036235 -0.101422 0.650000
v 0.070000 -0.090933 0.650000
v 0.098995 -0.074246 0.650000
v 0.121244 -0.052500 0.650000
v 0.135230 -0.027176 0.650000
v 0.138000 0.000000 0.710000
v 0.133298 0.025882 0.710000
v 0.119512 0.050000 0.710000
v 0.097581 0.070711 0.710000
v 0.069000 0.086603 0.710000
v 0.035717 0.096593 0.710000
v 0.000000 0.100000 0.710000
v -0.035717 0.096593 0.710000
v -0.069000 0.086603 0.710000
v -0.097581 0.070711 0.710000
v -0.119512 0.050000 0.710000
v -0.133298 0.025882 0.710000
v -0.138000 0.000000 0.710000
v -0.133298 -0.025882 0.710000
v -0.119512 -0.050000 0.710000
v -0.097581 -0.070711 0.710000
v -0.069000 -0.086603 0.710000
v -0.035717 -0.096593 0.710000
v -0.000000 -0.100000 0.710000
v 0.035717 -0.096593 0.710000
v 0.069000 -0.086603 0.710000
v 0.097581 -0.070711 0.710000
v 0.119512 -0.050000 0.710000
v 0.133298 -0.025882 0.710000
v 0.145000 0.000000 0.770000
v 0.140059 0.027176 0.770000
v 0.125574 0.052500 0.770000
v 0.102530 0.074246 0.770000
v 0.072500 0.090933 0.770000
v 0.037529 0.101422 0.770000
v 0.000000 0.105000 0.770000
v -0.037529 0.101422 0.770000
v -0.072500 0.090933 0.770000
v -0.102530 0.074246 0.770000
v -0.125574 0.052500 0.770000
v -0.140059 0.027176 0.770000
v -0.145000 0.000000 0.770000
v -0.140059 -0.027176 0.770000
v -0.125574 -0.052500 0.770000
v -0.102530 -0.074246 0.770000
v -0.072500 -0.090933 0.770000
v -0.037529 -0.101422 0.770000
v -0.000000 -0.105000 0.770000
v 0.037529 -0.101422 0.770000
v 0.072500 -0.090933 0.770000
v 0.102530 -0.074246 0.770000
v 0.125574 -0.052500 0.770000
v 0.140059 -0.027176 0.770000
v 0.165000 0.000000 0.850000
v 0.159378 0.029764 0.850000
v 0.142894 0.057500 0.850000
v 0.116673 0.081317 0.850000
v 0.082500 0.099593 0.850000
v 0.042705 0.111081 0.850000
v 0.000000 0.115000 0.850000
v -0.042705 0.111081 0.850000
v -0.082500 0.099593 0.850000
v -0.116673 0.081317 0.850000
v -0.142894 0.057500 0.850000
v -0.159378 0.029764 0.850000
v -0.165000 0.000000 0.850000
v -0.159378 -0.029764 0.850000
v -0.142894 -0.057500 0.850000
v -0.116673 -0.081317 0.850000
v -0.082500 -0.099593 0.850000
v -0.042705 -0.111081 0.850000
v -0.000000 -0.115000 0.850000
v 0.042705 -0.111081 0.850000
v 0.082500 -0.099593 0.850000
v 0.116673 -0.081317 0.850000
v 0.142894 -0.057500 0.850000
v 0.159378 -0.029764 0.850000
v 0.175000 0.000000 0.900000
v 0.169037 0.031058 0.900000
v 0.151554 0.060000 0.900000
v 0.123744 0.084853 0.900000
v 0.087500 0.103923 0.900000
v 0.045293 0.115911 0.900000
v 0.000000 0.120000 0.900000
v -0.045293 0.115911 0.900000
v -0.087500 0.103923 0.900000
v -0.123744 0.084853 0.900000
v -0.151554 0.060000 0.900000
v -0.169037 0.031058 0.900000
v -0.175000 0.000000 0.900000
v -0.169037 -0.031058 0.900000
v -0.151554 -0.060000 0.900000
v -0.123744 -0.084853 0.900000
v -0.087500 -0.103923 0.900000
v -0.045293 -0.115911 0.900000
v -0.000000 -0.120000 0.900000
v 0.045293 -0.115911 0.900000
v 0.087500 -0.103923 0.900000
v 0.123744 -0.084853 0.900000
v 0.151554 -0.060000 0.900000
v 0.169037 -0.031058 0.900000
v 0.180000 0.000000 0.950000
v 0.173867 0.029764 0.950000
v 0.155885 0.057500 0.950000
v 0.127279 0.081317 0.950000
v 0.090000 0.099593 0.950000
v 0.046587 0.111081 0.950000
v 0.000000 0.115000 0.950000
v -0.046587 0.111081 0.950000
v -0.090000 0.099593 0.950000
v -0.127279 0.081317 0.950000
v -0.155885 0.057500 0.950000
v -0.173867 0.029764 0.950000
v -0.180000 0.000000 0.950000
v -0.173867 -0.029764 0.950000
v -0.155885 -0.057500 0.950000
v -0.127279 -0.081317 0.950000
v -0.090000 -0.099593 0.950000
v -0.046587 -0.111081 0.950000
v -0.000000 -0.115000 0.950000
v 0.046587 -0.111081 0.950000
v 0.090000 -0.099593 0.950000
v 0.127279 -0.081317 0.950000
v 0.155885 -0.057500 0.950000
v 0.173867 -0.029764 0.950000
v 0.175000 0.000000 0.970000
v 0.169037 0.027952 0.970000
v 0.151554 0.054000 0.970000
v 0.123744 0.076368 0.970000
v 0.087500 0.093531 0.970000
v 0.045293 0.104320 0.970000
v 0.000000 0.108000 0.970000
v -0.045293 0.104320 0.970000
v -0.087500 0.093531 0.970000
v -0.123744 0.076368 0.970000
v -0.151554 0.054000 0.970000
v -0.169037 0.027952 0.970000
v -0.175000 0.000000 0.970000
v -0.169037 -0.027952 0.970000
v -0.151554 -0.054000 0.970000
v -0.123744 -0.076368 0.970000
v -0.087500 -0.093531 0.970000
v -0.045293 -0.104320 0.970000
v -0.000000 -0.108000 0.970000
v 0.045293 -0.104320 0.970000
v 0.087500 -0.093531 0.970000
v 0.123744 -0.076368 0.970000
v 0.151554 -0.054000 0.970000
v 0.169037 -0.027952 0.970000
v 0.055000 0.000000 0.970000
v 0.050813 0.019134 0.970000
v 0.038891 0.035355 0.970000
v 0.021048 0.046194 0.970000
v 0.000000 0.050000 0.970000
v -0.021048 0.046194 0.970000
v -0.038891 0.035355 0.970000
v -0.050813 0.019134 0.970000
v -0.055000 0.000000 0.970000
v -0.050813 -0.019134 0.970000
v -0.038891 -0.035355 0.970000
v -0.021048 -0.046194 0.970000
v -0.000000 -0.050000 0.970000
v 0.021048 -0.046194 0.970000
v 0.038891 -0.035355 0.970000
v 0.050813 -0.019134 0.970000
v 0.052000 0.000000 1.030000
v 0.048042 0.018369 1.030000
v 0.036770 0.033941 1.030000
v 0.019900 0.044346 1.030000
v 0.000000 0.048000 1.030000
v -0.019900 0.044346 1.030000
v -0.036770 0.033941 1.030000
v -0.048042 0.018369 1.030000
v -0.052000 0.000000 1.030000
v -0.048042 -0.018369 1.030000
v -0.036770 -0.033941 1.030000
v -0.019900 -0.044346 1.030000
v -0.000000 -0.048000 1.030000
v 0.019900 -0.044346 1.030000
v 0.036770 -0.033941 1.030000
v 0.048042 -0.018369 1.030000
v 0.050000 0.000000 1.070000
v 0.046194 0.017986 1.070000
v 0.035355 0.033234 1.070000
v 0.019134 0.043422 1.070000
v 0.000000 0.047000 1.070000
v -0.019134 0.043422 1.070000
v -0.035355 0.033234 1.070000
v -0.046194 0.017986 1.070000
v -0.050000 0.000000 1.070000
v -0.046194 -0.017986 1.070000
v -0.035355 -0.033234 1.070000
v -0.019134 -0.043422 1.070000
v -0.000000 -0.047000 1.070000
v 0.019134 -0.043422 1.070000
v 0.035355 -0.033234 1.070000
v 0.046194 -0.017986 1.070000
v 0.060000 0.000000 1.070000
v 0.055433 0.024874 1.070000
v 0.042426 0.045962 1.070000
v 0.022961 0.060052 1.070000
v 0.000000 0.065000 1.070000
v -0.022961 0.060052 1.070000
v -0.042426 0.045962 1.070000
v -0.055433 0.024874 1.070000
v -0.060000 0.000000 1.070000
v -0.055433 -0.024874 1.070000
v -0.042426 -0.045962 1.070000
v -0.022961 -0.060052 1.070000
v -0.000000 -0.065000 1.070000
v 0.022961 -0.060052 1.070000
v 0.042426 -0.045962 1.070000
v 0.055433 -0.024874 1.070000
v 0.075000 0.000000 1.110000
v 0.069291 0.030615 1.110000
v 0.053033 0.056569 1.110000
v 0.028701 0.073910 1.110000
v 0.000000 0.080000 1.110000
v -0.028701 0.073910 1.110000
v -0.053033 0.056569 1.110000
v -0.069291 0.030615 1.110000
v -0.075000 0.000000 1.110000
v -0.069291 -0.030615 1.110000
v -0.053033 -0.056569 1.110000
v -0.028701 -0.073910 1.110000
v -0.000000 -0.080000 1.110000
v 0.028701 -0.073910 1.110000
v 0.053033 -0.056569 1.110000
v 0.069291 -0.030615 1.110000
v 0.080000 0.000000 1.150000
v 0.073910 0.032528 1.150000
v 0.056569 0.060104 1.150000
v 0.030615 0.078530 1.150000
v 0.000000 0.085000 1.150000
v -0.030615 0.078530 1.150000
v -0.056569 0.060104 1.150000
v -0.073910 0.032528 1.150000
v -0.080000 0.000000 1.150000
v -0.073910 -0.032528 1.150000
v -0.056569 -0.060104 1.150000
v -0.030615 -0.078530 1.150000
v -0.000000 -0.085000 1.150000
v 0.030615 -0.078530 1.150000
v 0.056569 -0.060104 1.150000
v 0.073910 -0.032528 1.150000
v 0.078000 0.000000 1.190000
v 0.072063 0.031380 1.190000
v 0.055154 0.057983 1.190000
v 0.029849 0.075758 1.190000
v 0.000000 0.082000 1.190000
v -0.029849 0.075758 1.190000
v -0.055154 0.057983 1.190000
v -0.072063 0.031380 1.190000
v -0.078000 0.000000 1.190000
v -0.072063 -0.031380 1.190000
v -0.055154 -0.057983 1.190000
v -0.029849 -0.075758 1.190000
v -0.000000 -0.082000 1.190000
v 0.029849 -0.075758 1.190000
v 0.055154 -0.057983 1.190000
v 0.072063 -0.031380 1.190000
v 0.070000 0.000000 1.230000
v 0.064672 0.027553 1.230000
v 0.049497 0.050912 1.230000
v 0.026788 0.066519 1.230000
v 0.000000 0.072000 1.230000
v -0.026788 0.066519 1.230000
v -0.049497 0.050912 1.230000
v -0.064672 0.027553 1.230000
v -0.070000 0.000000 1.230000
v -0.064672 -0.027553 1.230000
v -0.049497 -0.050912 1.230000
v -0.026788 -0.066519 1.230000
v -0.000000 -0.072000 1.230000
v 0.026788 -0.066519 1.230000
v 0.049497 -0.050912 1.230000
v 0.064672 -0.027553 1.230000
v 0.050000 0.000000 1.270000
v 0.046194 0.019134 1.270000
v 0.035355 0.035355 1.270000
v 0.019134 0.046194 1.270000
v 0.000000 0.050000 1.270000
v -0.019134 0.046194 1.270000
v -0.035355 0.035355 1.270000
v -0.046194 0.019134 1.270000
v -0.050000 0.000000 1.270000
v -0.046194 -0.019134 1.270000
v -0.035355 -0.035355 1.270000
v -0.019134 -0.046194 1.270000
v -0.000000 -0.050000 1.270000
v 0.019134 -0.046194 1.270000
v 0.035355 -0.035355 1.270000
v 0.046194 -0.019134 1.270000
v 0.020000 0.000000 1.300000
v 0.018478 0.007654 1.300000
v 0.014142 0.014142 1.300000
v 0.007654 0.018478 1.300000
v 0.000000 0.020000 1.300000
v -0.007654 0.018478 1.300000
v -0.014142 0.014142 1.300000
v -0.018478 0.007654 1.300000
v -0.020000 0.000000 1.300000
v -0.018478 -0.007654 1.300000
v -0.014142 -0.014142 1.300000
v -0.007654 -0.018478 1.300000
v -0.000000 -0.020000 1.300000
v 0.007654 -0.018478 1.300000
v 0.014142 -0.014142 1.300000
v 0.018478 -0.007654 1.300000
v 0.000000 0.000000 1.320000
v -0.030000 0.000000 0.000000
v -0.033806 0.019134 0.000000
v -0.044645 0.035355 0.000000
v -0.060866 0.046194 0.000000
v -0.080000 0.050000 0.000000
v -0.099134 0.046194 0.000000
v -0.115355 0.035355 0.000000
v -0.126194 0.019134 0.000000
v -0.130000 0.000000 0.000000
v -0.126194 -0.019134 0.000000
v -0.115355 -0.035355 0.000000
v -0.099134 -0.046194 0.000000
v -0.080000 -0.050000 0.000000
v -0.060866 -0.046194 0.000000
v -0.044645 -0.035355 0.000000
v -0.033806 -0.019134 0.000000
v -0.025000 0.000000 0.100000
v -0.029187 0.021048 0.100000
v -0.041109 0.038891 0.100000
v -0.058952 0.050813 0.100000
v -0.080000 0.055000 0.100000
v -0.101048 0.050813 0.100000
v -0.118891 0.038891 0.100000
v -0.130813 0.021048 0.100000
v -0.135000 0.000000 0.100000
v -0.130813 -0.021048 0.100000
v -0.118891 -0.038891 0.100000
v -0.101048 -0.050813 0.100000
v -0.080000 -0.055000 0.100000
v -0.058952 -0.050813 0.100000
v -0.041109 -0.038891 0.100000
v -0.029187 -0.021048 0.100000
v -0.015000 0.000000 0.250000
v -0.019948 0.022961 0.250000
v -0.034038 0.042426 0.250000
v -0.055126 0.055433 0.250000
v -0.080000 0.060000 0.250000
v -0.104874 0.055433 0.250000
v -0.125962 0.042426 0.250000
v -0.140052 0.022961 0.250000
v -0.145000 0.000000 0.250000
v -0.140052 -0.022961 0.250000
v -0.125962 -0.042426 0.250000
v -0.104874 -0.055433 0.250000
v -0.080000 -0.060000 0.250000
v -0.055126 -0.055433 0.250000
v -0.034038 -0.042426 0.250000
v -0.019948 -0.022961 0.250000
v -0.010000 0.000000 0.400000
v -0.015328 0.024874 0.400000
v -0.030503 0.045962 0.400000
v -0.053212 0.060052 0.400000
v -0.080000 0.065000 0.400000
v -0.106788 0.060052 0.400000
v -0.129497 0.045962 0.400000
v -0.144672 0.024874 0.400000
v -0.150000 0.000000 0.400000
v -0.144672 -0.024874 0.400000
v -0.129497 -0.045962 0.400000
v -0.106788 -0.060052 0.400000
v -0.080000 -0.065000 0.400000
v -0.053212 -0.060052 0.400000
v -0.030503 -0.045962 0.400000
v -0.015328 -0.024874 0.400000
v -0.008000 0.000000 0.450000
v -0.013481 0.026022 0.450000
v -0.029088 0.048083 0.450000
v -0.052447 0.062824 0.450000
v -0.080000 0.068000 0.450000
v -0.107553 0.062824 0.450000
v -0.130912 0.048083 0.450000
v -0.146519 0.026022 0.450000
v -0.152000 0.000000 0.450000
v -0.146519 -0.026022 0.450000
v -0.130912 -0.048083 0.450000
v -0.107553 -0.062824 0.450000
v -0.080000 -0.068000 0.450000
v -0.052447 -0.062824 0.450000
v -0.029088 -0.048083 0.450000
v -0.013481 -0.026022 0.450000
v 0.005000 0.000000 0.550000
v -0.001470 0.030615 0.550000
v -0.019896 0.056569 0.550000
v -0.047472 0.073910 0.550000
v -0.080000 0.080000 0.550000
v -0.112528 0.073910 0.550000
v -0.140104 0.056569 0.550000
v -0.158530 0.030615 0.550000
v -0.165000 0.000000 0.550000
v -0.158530 -0.030615 0.550000
v -0.140104 -0.056569 0.550000
v -0.112528 -0.073910 0.550000
v -0.080000 -0.080000 0.550000
v -0.047472 -0.073910 0.550000
v -0.019896 -0.056569 0.550000
v -0.001470 -0.030615 0.550000
v -0.080000 0.000000 0.000000
v 0.130000 0.000000 0.000000
v 0.126194 0.019134 0.000000
v 0.115355 0.035355 0.000000
v 0.099134 0.046194 0.000000
v 0.080000 0.050000 0.000000
v 0.060866 0.046194 0.000000
v 0.044645 0.035355 0.000000
v 0.033806 0.019134 0.000000
v 0.030000 0.000000 0.000000
v 0.033806 -0.019134 0.000000
v 0.044645 -0.035355 0.000000
v 0.060866 -0.046194 0.000000
v 0.080000 -0.050000 0.000000
v 0.099134 -0.046194 0.000000
v 0.115355 -0.035355 0.000000
v 0.126194 -0.019134 0.000000
v 0.135000 0.000000 0.100000
v 0.130813 0.021048 0.100000
v 0.118891 0.038891 0.100000
v 0.101048 0.050813 0.100000
v 0.080000 0.055000 0.100000
v 0.058952 0.050813 0.100000
v 0.041109 0.038891 0.100000
v 0.029187 0.021048 0.100000
v 0.025000 0.000000 0.100000
v 0.029187 -0.021048 0.100000
v 0.041109 -0.038891 0.100000
v 0.058952 -0.050813 0.100000
v 0.080000 -0.055000 0.100000
v 0.101048 -0.050813 0.100000
v 0.118891 -0.038891 0.100000
v 0.130813 -0.021048 0.100000
v 0.145000 0.000000 0.250000
v 0.140052 0.022961 0.250000
v 0.125962 0.042426 0.250000
v 0.104874 0.055433 0.250000
v 0.080000 0.060000 0.250000
v 0.055126 0.055433 0.250000
v 0.034038 0.042426 0.250000
v 0.019948 0.022961 0.250000
v 0.015000 0.000000 0.250000
v 0.019948 -0.022961 0.250000
v 0.034038 -0.042426 0.250000
v 0.055126 -0.055433 0.250000
v 0.080000 -0.060000 0.250000
v 0.104874 -0.055433 0.250000
v 0.125962 -0.042426 0.250000
v 0.140052 -0.022961 0.250000
v 0.150000 0.000000 0.400000
v 0.144672 0.024874 0.400000
v 0.129497 0.045962 0.400000
v 0.106788 0.060052 0.400000
v 0.080000 0.065000 0.400000
v 0.053212 0.060052 0.400000
v 0.030503 0.045962 0.400000
v 0.015328 0.024874 0.400000
v 0.010000 0.000000 0.400000
v 0.015328 -0.024874 0.400000
v 0.030503 -0.045962 0.400000
v 0.053212 -0.060052 0.400000
v 0.080000 -0.065000 0.400000
v 0.106788 -0.060052 0.400000
v 0.129497 -0.045962 0.400000
v 0.144672 -0.024874 0.400000
v 0.152000 0.000000 0.450000
v 0.146519 0.026022 0.450000
v 0.130912 0.048083 0.450000
v 0.107553 0.062824 0.450000
v 0.080000 0.068000 0.450000
v 0.052447 0.062824 0.450000
v 0.029088 0.048083 0.450000
v 0.013481 0.026022 0.450000
v 0.008000 0.000000 0.450000
v 0.013481 -0.026022 0.450000
v 0.029088 -0.048083 0.450000
v 0.052447 -0.062824 0.450000
v 0.080000 -0.068000 0.450000
v 0.107553 -0.062824 0.450000
v 0.130912 -0.048083 0.450000
v 0.146519 -0.026022 0.450000
v 0.165000 0.000000 0.550000
v 0.158530 0.030615 0.550000
v 0.140104 0.056569 0.550000
v 0.112528 0.073910 0.550000
v 0.080000 0.080000 0.550000
v 0.047472 0.073910 0.550000
v 0.019896 0.056569 0.550000
v 0.001470 0.030615 0.550000
v -0.005000 0.000000 0.550000
v 0.001470 -0.030615 0.550000
v 0.019896 -0.056569 0.550000
v 0.047472 -0.073910 0.550000
v 0.080000 -0.080000 0.550000
v 0.112528 -0.073910 0.550000
v 0.140104 -0.056569 0.550000
v 0.158530 -0.030615 0.550000
v 0.080000 0.000000 0.000000
v -0.130000 0.000000 0.950000
v -0.136699 0.024000 0.950000
v -0.155000 0.041569 0.950000
v -0.180000 0.048000 0.950000
v -0.205000 0.041569 0.950000
v -0.223301 0.024000 0.950000
v -0.230000 0.000000 0.950000
v -0.223301 -0.024000 0.950000
v -0.205000 -0.041569 0.950000
v -0.180000 -0.048000 0.950000
v -0.155000 -0.041569 0.950000
v -0.136699 -0.024000 0.950000
v -0.215000 0.000000 0.950000
v -0.221029 0.021500 0.950000
v -0.237500 0.037239 0.950000
v -0.260000 0.043000 0.950000
v -0.282500 0.037239 0.950000
v -0.298971 0.021500 0.950000
v -0.305000 0.000000 0.950000
v -0.298971 -0.021500 0.950000
v -0.282500 -0.037239 0.950000
v -0.260000 -0.043000 0.950000
v -0.237500 -0.037239 0.950000
v -0.221029 -0.021500 0.950000
v -0.320000 0.000000 0.950000
v -0.325359 0.019000 0.950000
v -0.340000 0.032909 0.950000
v -0.360000 0.038000 0.950000
v -0.380000 0.032909 0.950000
v -0.394641 0.019000 0.950000
v -0.400000 0.000000 0.950000
v -0.394641 -0.019000 0.950000
v -0.380000 -0.032909 0.950000
v -0.360000 -0.038000 0.950000
v -0.340000 -0.032909 0.950000
v -0.325359 -0.019000 0.950000
v -0.445000 0.000000 0.950000
v -0.449689 0.016500 0.950000
v -0.462500 0.028579 0.950000
v -0.480000 0.033000 0.950000
v -0.497500 0.028579 0.950000
v -0.510311 0.016500 0.950000
v -0.515000 0.000000 0.950000
v -0.510311 -0.016500 0.950000
v -0.497500 -0.028579 0.950000
v -0.480000 -0.033000 0.950000
v -0.462500 -0.028579 0.950000
v -0.449689 -0.016500 0.950000
v -0.568000 0.000000 0.950000
v -0.572287 0.014000 0.950000
v -0.584000 0.024249 0.950000
v -0.600000 0.028000 0.950000
v -0.616000 0.024249 0.950000
v -0.627713 0.014000 0.950000
v -0.632000 0.000000 0.950000
v -0.627713 -0.014000 0.950000
v -0.616000 -0.024249 0.950000
v -0.600000 -0.028000 0.950000
v -0.584000 -0.024249 0.950000
v -0.572287 -0.014000 0.950000
v -0.692000 0.000000 0.950000
v -0.695751 0.012500 0.950000
v -0.706000 0.021651 0.950000
v -0.720000 0.025000 0.950000
v -0.734000 0.021651 0.950000
v -0.744249 0.012500 0.950000
v -0.748000 0.000000 0.950000
v -0.744249 -0.012500 0.950000
v -0.734000 -0.021651 0.950000
v -0.720000 -0.025000 0.950000
v -0.706000 -0.021651 0.950000
v -0.695751 -0.012500 0.950000
v -0.730000 0.000000 0.950000
v -0.734019 0.009000 0.950000
v -0.745000 0.015588 0.950000
v -0.760000 0.018000 0.950000
v -0.775000 0.015588 0.950000
v -0.785981 0.009000 0.950000
v -0.790000 0.000000 0.950000
v -0.785981 -0.009000 0.950000
v -0.775000 -0.015588 0.950000
v -0.760000 -0.018000 0.950000
v -0.745000 -0.015588 0.950000
v -0.734019 -0.009000 0.950000
v -0.780000 0.000000 0.950000
v 0.230000 0.000000 0.950000
v 0.223301 0.024000 0.950000
v 0.205000 0.041569 0.950000
v 0.180000 0.048000 0.950000
v 0.155000 0.041569 0.950000
v 0.136699 0.024000 0.950000
v 0.130000 0.000000 0.950000
v 0.136699 -0.024000 0.950000
v 0.155000 -0.041569 0.950000
v 0.180000 -0.048000 0.950000
v 0.205000 -0.041569 0.950000
v 0.223301 -0.024000 0.950000
v 0.305000 0.000000 0.950000
v 0.298971 0.021500 0.950000
v 0.282500 0.037239 0.950000
v 0.260000 0.043000 0.950000
v 0.237500 0.037239 0.950000
v 0.221029 0.021500 0.950000
v 0.215000 0.000000 0.950000
v 0.221029 -0.021500 0.950000
v 0.237500 -0.037239 0.950000
v 0.260000 -0.043000 0.950000
v 0.282500 -0.037239 0.950000
v 0.298971 -0.021500 0.950000
v 0.400000 0.000000 0.950000
v 0.394641 0.019000 0.950000
v 0.380000 0.032909 0.950000
v 0.360000 0.038000 0.950000
v 0.340000 0.032909 0.950000
v 0.325359 0.019000 0.950000
v 0.320000 0.000000 0.950000
v 0.325359 -0.019000 0.950000
v 0.340000 -0.032909 0.950000
v 0.360000 -0.038000 0.950000
v 0.380000 -0.032909 0.950000
v 0.394641 -0.019000 0.950000
v 0.515000 0.000000 0.950000
v 0.510311 0.016500 0.950000
v 0.497500 0.028579 0.950000
v 0.480000 0.033000 0.950000
v 0.462500 0.028579 0.950000
v 0.449689 0.016500 0.950000
v 0.445000 0.000000 0.950000
v 0.449689 -0.016500 0.950000
v 0.462500 -0.028579 0.950000
v 0.480000 -0.033000 0.950000
v 0.497500 -0.028579 0.950000
v 0.510311 -0.016500 0.950000
v 0.632000 0.000000 0.950000
v 0.627713 0.014000 0.950000
v 0.616000 0.024249 0.950000
v 0.600000 0.028000 0.950000
v 0.584000 0.024249 0.950000
v 0.572287 0.014000 0.950000
v 0.568000 0.000000 0.950000
v 0.572287 -0.014000 0.950000
v 0.584000 -0.024249 0.950000
v 0.600000 -0.028000 0.950000
v 0.616000 -0.024249 0.950000
v 0.627713 -0.014000 0.950000
v 0.748000 0.000000 0.950000
v 0.744249 0.012500 0.950000
v 0.734000 0.021651 0.950000
v 0.720000 0.025000 0.950000
v 0.706000 0.021651 0.950000
v 0.695751 0.012500 0.950000
v 0.692000 0.000000 0.950000
v 0.695751 -0.012500 0.950000
v 0.706000 -0.021651 0.950000
v 0.720000 -0.025000 0.950000
v 0.734000 -0.021651 0.950000
v 0.744249 -0.012500 0.950000
v 0.790000 0.000000 0.950000
v 0.785981 0.009000 0.950000
v 0.775000 0.015588 0.950000
v 0.760000 0.018000 0.950000
v 0.745000 0.015588 0.950000
v 0.734019 0.009000 0.950000
v 0.730000 0.000000 0.950000
v 0.734019 -0.009000 0.950000
v 0.745000 -0.015588 0.950000
v 0.760000 -0.018000 0.950000
v 0.775000 -0.015588 0.950000
v 0.785981 -0.009000 0.950000
v 0.780000 0.000000 0.950000
s 1
f 1 2 26 25
f 2 3 27 26
f 3 4 28 27
f 4 5 29 28
f 5 6 30 29
f 6 7 31 30
f 7 8 32 31
f 8 9 33 32
f 9 10 34 33
f 10 11 35 34
f 11 12 36 35
f 12 13 37 36
f 13 14 38 37
f 14 15 39 38
f 15 16 40 39
f 16 17 41 40
f 17 18 42 41
f 18 19 43 42
f 19 20 44 43
f 20 21 45 44
f 21 22 46 45
f 22 23 47 46
f 23 24 48 47
f 24 1 25 48
f 25 26 50 49
f 26 27 51 50
f 27 28 52 51
f 28 29 53 52
f 29 30 54 53
f 30 31 55 54
f 31 32 56 55
f 32 33 57 56
f 33 34 58 57
f 34 35 59 58
f 35 36 60 59
f 36 37 61 60
f 37 38 62 61
f 38 39 63 62
f 39 40 64 63
f 40 41 65 64
f 41 42 66 65
f 42 43 67 66
f 43 44 68 67
f 44 45 69 68
f 45 46 70 69
f 46 47 71 70
f 47 48 72 71
f 48 25 49 72
f 49 50 74 73
f 50 51 75 74
f 51 52 76 75
f 52 53 77 76
f 53 54 78 77
f 54 55 79 78
f 55 56 80 79
f 56 57 81 80
f 57 58 82 81
f 58 59 83 82
f 59 60 84 83
f 60 61 85 84
f 61 62 86 85
f 62 63 87 86
f 63 64 88 87
f 64 65 89 88
f 65 66 90 89
f 66 67 91 90
f 67 68 92 91
f 68 69 93 92
f 69 70 94 93
f 70 71 95 94
f 71 72 96 95
f 72 49 73 96
f 73 74 98 97
f 74 75 99 98
f 75 76 100 99
f 76 77 101 100
f 77 78 102 101
f 78 79 103 102
f 79 80 104 103
f 80 81 105 104
f 81 82 106 105
f 82 83 107 106
f 83 84 108 107
f 84 85 109 108
f 85 86 110 109
f 86 87 111 110
f 87 88 112 111
f 88 89 113 112
f 89 90 114 113
f 90 91 115 114
f 91 92 116 115
f 92 93 117 116
f 93 94 118 117
f 94 95 119 118
f 95 96 120 119
f 96 73 97 120
f 97 98 122 121
f 98 99 123 122
f 99 100 124 123
f 100 101 125 124
f 101 102 126 125
f 102 103 127 126
f 103 104 128 127
f 104 105 129 128
f 105 106 130 129
f 106 107 131 130
f 107 108 132 131
f 108 109 133 132
f 109 110 134 133
f 110 111 135 134
f 111 112 136 135
f 112 113 137 136
f 113 114 138 137
f 114 115 139 138
f 115 116 140 139
f 116 117 141 140
f 117 118 142 141
f 118 119 143 142
f 119 120 144 143
f 120 97 121 144
f 121 122 146 145
f 122 123 147 146
f 123 124 148 147
f 124 125 149 148
f 125 126 150 149
f 126 127 151 150
f 127 128 152 151
f 128 129 153 152
f 129 130 154 153
f 130 131 155 154
f 131 132 156 155
f 132 133 157 156
f 133 134 158 157
f 134 135 159 158
f 135 136 160 159
f 136 137 161 160
f 137 138 162 161
f 138 139 163 162
f 139 140 164 163
f 140 141 165 164
f 141 142 166 165
f 142 143 167 166
f 143 144 168 167
f 144 121 145 168
f 145 146 170 169
f 146 147 171 170
f 147 148 172 171
f 148 149 173 172
f 149 150 174 173
f 150 151 175 174
f 151 152 176 175
f 152 153 177 176
f 153 154 178 177
f 154 155 179 178
f 155 156 180 179
f 156 157 181 180
f 157 158 182 181
f 158 159 183 182
f 159 160 184 183
f 160 161 185 184
f 161 162 186 185
f 162 163 187 186
f 163 164 188 187
f 164 165 189 188
f 165 166 190 189
f 166 167 191 190
f 167 168 192 191
f 168 145 169 192
f 169 170 194 193
f 170 171 195 194
f 171 172 196 195
f 172 173 197 196
f 173 174 198 197
f 174 175 199 198
f 175 176 200 199
f 176 177 201 200
f 177 178 202 201
f 178 179 203 202
f 179 180 204 203
f 180 181 205 204
f 181 182 206 205
f 182 183 207 206
f 183 184 208 207
f 184 185 209 208
f 185 186 210 209
f 186 187 211 210
f 187 188 212 211
f 188 189 213 212
f 189 190 214 213
f 190 191 215 214
f 191 192 216 215
f 192 169 193 216
f 217 218 234 233
f 218 219 235 234
f 219 220 236 235
f 220 221 237 236
f 221 222 238 237
f 222 223 239 238
f 223 224 240 239
f 224 225 241 240
f 225 226 242 241
f 226 227 243 242
f 227 228 244 243
f 228 229 245 244
f 229 230 246 245
f 230 231 247 246
f 231 232 248 247
f 232 217 233 248
f 233 234 250 249
f 234 235 251 250
f 235 236 252 251
f 236 237 253 252
f 237 238 254 253
f 238 239 255 254
f 239 240 256 255
f 240 241 257 256
f 241 242 258 257
f 242 243 259 258
f 243 244 260 259
f 244 245 261 260
f 245 246 262 261
f 246 247 263 262
f 247 248 264 263
f 248 233 249 264
f 265 266 282 281
f 266 267 283 282
f 267 268 284 283
f 268 269 285 284
f 269 270 286 285
f 270 271 287 286
f 271 272 288 287
f 272 273 289 288
f 273 274 290 289
f 274 275 291 290
f 275 276 292 291
f 276 277 293 292
f 277 278 294 293
f 278 279 295 294
f 279 280 296 295
f 280 265 281 296
f 281 282 298 297
f 282 283 299 298
f 283 284 300 299
f 284 285 301 300
f 285 286 302 301
f 286 287 303 302
f 287 288 304 303
f 288 289 305 304
f 289 290 306 305
f 290 291 307 306
f 291 292 308 307
f 292 293 309 308
f 293 294 310 309
f 294 295 311 310
f 295 296 312 311
f 296 281 297 312
f 297 298 314 313
f 298 299 315 314
f 299 300 316 315
f 300 301 317 316
f 301 302 318 317
f 302 303 319 318
f 303 304 320 319
f 304 305 321 320
f 305 306 322 321
f 306 307 323 322
f 307 308 324 323
f 308 309 325 324
f 309 310 326 325
f 310 311 327 326
f 311 312 328 327
f 312 297 313 328
f 313 314 330 329
f 314 315 331 330
f 315 316 332 331
f 316 317 333 332
f 317 318 334 333
f 318 319 335 334
f 319 320 336 335
f 320 321 337 336
f 321 322 338 337
f 322 323 339 338
f 323 324 340 339
f 324 325 341 340
f 325 326 342 341
f 326 327 343 342
f 327 328 344 343
f 328 313 329 344
f 329 330 346 345
f 330 331 347 346
f 331 332 348 347
f 332 333 349 348
f 333 334 350 349
f 334 335 351 350
f 335 336 352 351
f 336 337 353 352
f 337 338 354 353
f 338 339 355 354
f 339 340 356 355
f 340 341 357 356
f 341 342 358 357
f 342 343 359 358
f 343 344 360 359
f 344 329 345 360
f 345 346 362 361
f 346 347 363 362
f 347 348 364 363
f 348 349 365 364
f 349 350 366 365
f 350 351 367 366
f 351 352 368 367
f 352 353 369 368
f 353 354 370 369
f 354 355 371 370
f 355 356 372 371
f 356 357 373 372
f 357 358 374 373
f 358 359 375 374
f 359 360 376 375
f 360 345 361 376
f 361 362 377
f 362 363 377
f 363 364 377
f 364 365 377
f 365 366 377
f 366 367 377
f 367 368 377
f 368 369 377
f 369 370 377
f 370 371 377
f 371 372 377
f 372 373 377
f 373 374 377
f 374 375 377
f 375 376 377
f 376 361 377
f 378 379 395 394
f 379 380 396 395
f 380 381 397 396
f 381 382 398 397
f 382 383 399 398
f 383 384 400 399
f 384 385 401 400
f 385 386 402 401
f 386 387 403 402
f 387 388 404 403
f 388 389 405 404
f 389 390 406 405
f 390 391 407 406
f 391 392 408 407
f 392 393 409 408
f 393 378 394 409
f 394 395 411 410
f 395 396 412 411
f 396 397 413 412
f 397 398 414 413
f 398 399 415 414
f 399 400 416 415
f 400 401 417 416
f 401 402 418 417
f 402 403 419 418
f 403 404 420 419
f 404 405 421 420
f 405 406 422 421
f 406 407 423 422
f 407 408 424 423
f 408 409 425 424
f 409 394 410 425
f 410 411 427 426
f 411 412 428 427
f 412 413 429 428
f 413 414 430 429
f 414 415 431 430
f 415 416 432 431
f 416 417 433 432
f 417 418 434 433
f 418 419 435 434
f 419 420 436 435
f 420 421 437 436
f 421 422 438 437
f 422 423 439 438
f 423 424 440 439
f 424 425 441 440
f 425 410 426 441
f 426 427 443 442
f 427 428 444 443
f 428 429 445 444
f 429 430 446 445
f 430 431 447 446
f 431 432 448 447
f 432 433 449 448
f 433 434 450 449
f 434 435 451 450
f 435 436 452 451
f 436 437 453 452
f 437 438 454 453
f 438 439 455 454
f 439 440 456 455
f 440 441 457 456
f 441 426 442 457
f 442 443 459 458
f 443 444 460 459
f 444 445 461 460
f 445 446 462 461
f 446 447 463 462
f 447 448 464 463
f 448 449 465 464
f 449 450 466 465
f 450 451 467 466
f 451 452 468 467
f 452 453 469 468
f 453 454 470 469
f 454 455 471 470
f 455 456 472 471
f 456 457 473 472
f 457 442 458 473
f 379 378 474
f 380 379 474
f 381 380 474
f 382 381 474
f 383 382 474
f 384 383 474
f 385 384 474
f 386 385 474
f 387 386 474
f 388 387 474
f 389 388 474
f 390 389 474
f 391 390 474
f 392 391 474
f 393 392 474
f 378 393 474
f 475 476 492 491
f 476 477 493 492
f 477 478 494 493
f 478 479 495 494
f 479 480 496 495
f 480 481 497 496
f 481 482 498 497
f 482 483 499 498
f 483 484 500 499
f 484 485 501 500
f 485 486 502 501
f 486 487 503 502
f 487 488 504 503
f 488 489 505 504
f 489 490 506 505
f 490 475 491 506
f 491 492 508 507
f 492 493 509 508
f 493 494 510 509
f 494 495 511 510
f 495 496 512 511
f 496 497 513 512
f 497 498 514 513
f 498 499 515 514
f 499 500 516 515
f 500 501 517 516
f 501 502 518 517
f 502 503 519 518
f 503 504 520 519
f 504 505 521 520
f 505 506 522 521
f 506 491 507 522
f 507 508 524 523
f 508 509 525 524
f 509 510 526 525
f 510 511 527 526
f 511 512 528 527
f 512 513 529 528
f 513 514 530 529
f 514 515 531 530
f 515 516 532 531
f 516 517 533 532
f 517 518 534 533
f 518 519 535 534
f 519 520 536 535
f 520 521 537 536
f 521 522 538 537
f 522 507 523 538
f 523 524 540 539
f 524 525 541 540
f 525 526 542 541
f 526 527 543 542
f 527 528 544 543
f 528 529 545 544
f 529 530 546 545
f 530 531 547 546
f 531 532 548 547
f 532 533 549 548
f 533 534 550 549
f 534 535 551 550
f 535 536 552 551
f 536 537 553 552
f 537 538 554 553
f 538 523 539 554
f 539 540 556 555
f 540 541 557 556
f 541 542 558 557
f 542 543 559 558
f 543 544 560 559
f 544 545 561 560
f 545 546 562 561
f 546 547 563 562
f 547 548 564 563
f 548 549 565 564
f 549 550 566 565
f 550 551 567 566
f 551 552 568 567
f 552 553 569 568
f 553 554 570 569
f 554 539 555 570
f 476 475 571
f 477 476 571
f 478 477 571
f 479 478 571
f 480 479 571
f 481 480 571
f 482 481 571
f 483 482 571
f 484 483 571
f 485 484 571
f 486 485 571
f 487 486 571
f 488 487 571
f 489 488 571
f 490 489 571
f 475 490 571
f 572 573 585 584
f 573 574 586 585
f 574 575 587 586
f 575 576 588 587
f 576 577 589 588
f 577 578 590 589
f 578 579 591 590
f 579 580 592 591
f 580 581 593 592
f 581 582 594 593
f 582 583 595 594
f 583 572 584 595
f 584 585 597 596
f 585 586 598 597
f 586 587 599 598
f 587 588 600 599
f 588 589 601 600
f 589 590 602 601
f 590 591 603 602
f 591 592 604 603
f 592 593 605 604
f 593 594 606 605
f 594 595 607 606
f 595 584 596 607
f 596 597 609 608
f 597 598 610 609
f 598 599 611 610
f 599 600 612 611
f 600 601 613 612
f 601 602 614 613
f 602 603 615 614
f 603 604 616 615
f 604 605 617 616
f 605 606 618 617
f 606 607 619 618
f 607 596 608 619
f 608 609 621 620
f 609 610 622 621
f 610 611 623 622
f 611 612 624 623
f 612 613 625 624
f 613 614 626 625
f 614 615 627 626
f 615 616 628 627
f 616 617 629 628
f 617 618 630 629
f 618 619 631 630
f 619 608 620 631
f 620 621 633 632
f 621 622 634 633
f 622 623 635 634
f 623 624 636 635
f 624 625 637 636
f 625 626 638 637
f 626 627 639 638
f 627 628 640 639
f 628 629 641 640
f 629 630 642 641
f 630 631 643 642
f 631 620 632 643
f 632 633 645 644
f 633 634 646 645
f 634 635 647 646
f 635 636 648 647
f 636 637 649 648
f 637 638 650 649
f 638 639 651 650
f 639 640 652 651
f 640 641 653 652
f 641 642 654 653
f 642 643 655 654
f 643 632 644 655
f 644 645 656
f 645 646 656
f 646 647 656
f 647 648 656
f 648 649 656
f 649 650 656
f 650 651 656
f 651 652 656
f 652 653 656
f 653 654 656
f 654 655 656
f 655 644 656
f 657 658 670 669
f 658 659 671 670
f 659 660 672 671
f 660 661 673 672
f 661 662 674 673
f 662 663 675 674
f 663 664 676 675
f 664 665 677 676
f 665 666 678 677
f 666 667 679 678
f 667 668 680 679
f 668 657 669 680
f 669 670 682 681
f 670 671 683 682
f 671 672 684 683
f 672 673 685 684
f 673 674 686 685
f 674 675 687 686
f 675 676 688 687
f 676 677 689 688
f 677 678 690 689
f 678 679 691 690
f 679 680 692 691
f 680 669 681 692
f 681 682 694 693
f 682 683 695 694
f 683 684 696 695
f 684 685 697 696
f 685 686 698 697
f 686 687 699 698
f 687 688 700 699
f 688 689 701 700
f 689 690 702 701
f 690 691 703 702
f 691 692 704 703
f 692 681 693 704
f 693 694 706 705
f 694 695 707 706
f 695 696 708 707
f 696 697 709 708
f 697 698 710 709
f 698 699 711 710
f 699 700 712 711
f 700 701 713 712
f 701 702 714 713
f 702 703 715 714
f 703 704 716 715
f 704 693 705 716
f 705 706 718 717
f 706 707 719 718
f 707 708 720 719
f 708 709 721 720
f 709 710 722 721
f 710 711 723 722
f 711 712 724 723
f 712 713 725 724
f 713 714 726 725
f 714 715 727 726
f 715 716 728 727
f 716 705 717 728
f 717 718 730 729
f 718 719 731 730
f 719 720 732 731
f 720 721 733 732
f 721 722 734 733
f 722 723 735 734
f 723 724 736 735
f 724 725 737 736
f 725 726 738 737
f 726 727 739 738
f 727 728 740 739
f 728 717 729 740
f 729 730 741
f 730 731 741
f 731 732 741
f 732 733 741
f 733 734 741
f 734 735 741
f 735 736 741
f 736 737 741
f 737 738 741
f 738 739 741
f 739 740 741
f 740 729 741
